<?xml version="1.0" encoding="UTF-8"?>
<svg id="Layer_1" xmlns="http://www.w3.org/2000/svg" viewBox="0 0 1080 1080">
  <defs>
    <style>
      .cls-1, .cls-2 {
        fill: #fff;
      }

      .cls-2 {
        font-family: Poppins-Regular, Poppins;
        font-size: 63.58px;
      }

      .cls-3 {
        fill: #195230;
      }
    </style>
  </defs>
  <rect class="cls-3" x=".31" y="-2.5" width="1079.39" height="1085"/>
  <text class="cls-2" transform="translate(422.05 663.43)"><tspan x="0" y="0">Ceres FieldCheck</tspan></text>
  <g>
    <path class="cls-1" d="M540,434.76c-3.05,4.91-5.43,8.94-8,12.85-9.59,14.63-19.39,29.13-28.77,43.9-2.78,4.37-5.91,5.85-11.08,5.84-80.75-.17-161.51-.09-242.26-.15-11.95,0-23.57,1.24-34.55,6.35-23.14,10.77-35.61,33.77-32.37,59.78,2.96,23.73,22.16,43.65,47.83,47.49,13.16,1.97,26.74,1.04,40.11,1.82,2.5.15,5.99,1.51,7.15,3.43,11.23,18.69,22.06,37.62,32.97,56.5.31.54.32,1.25.58,2.37-2.18.12-4.12.34-6.06.31-26.6-.41-53.26.21-79.77-1.53-51.3-3.36-93.91-37.38-106.01-84.25-12.63-48.91-.1-100.39,42.76-130.71,21.58-15.27,45.95-23.29,72.12-23.63,56.4-.73,112.82-.33,169.24-.37,42.54-.03,85.08,0,127.61,0h8.5Z"/>
    <path class="cls-1" d="M365.75,587c14.99,29.81,29.35,58.36,44.08,87.63-2.04.22-3.46.5-4.89.5-20.94.08-41.87.24-62.81.02-2.39-.03-5.91-1.59-6.96-3.51-25.64-46.61-51.02-93.37-76.44-140.11-.31-.58-.42-1.27-.8-2.48h220.88c-1.25,2.27-2.1,4.05-3.16,5.7-9.67,15.14-19.56,30.15-28.98,45.45-3.06,4.97-6.37,7.09-12.5,6.97-22.28-.45-44.56-.18-68.42-.18Z"/>
  </g>
</svg>